<?xml version="1.0" standalone="no"?>
<!DOCTYPE svg PUBLIC "-//W3C//DTD SVG 20010904//EN"
 "http://www.w3.org/TR/2001/REC-SVG-20010904/DTD/svg10.dtd">
<svg version="1.0" xmlns="http://www.w3.org/2000/svg"
 width="1754.000000pt" height="1754.000000pt" viewBox="0 0 1754.000000 1754.000000"
 preserveAspectRatio="xMidYMid meet">

<g transform="translate(0.000000,1754.000000) scale(0.100000,-0.100000)"
fill="#000000" stroke="none">
<path d="M11410 17450 c0 -6 -55 -10 -144 -10 -86 0 -147 -4 -151 -10 -3 -5
-46 -10 -94 -10 -55 0 -91 -4 -99 -12 -8 -8 -38 -11 -85 -9 -58 2 -76 -1 -87
-14 -10 -12 -28 -16 -77 -14 -38 1 -68 -2 -75 -9 -7 -7 -38 -12 -69 -12 -32 0
-61 -4 -64 -10 -3 -5 -33 -10 -66 -10 -33 0 -59 -4 -59 -10 0 -5 -22 -10 -49
-10 -28 0 -53 -4 -56 -10 -3 -5 -28 -10 -55 -10 -27 0 -52 -4 -55 -10 -3 -5
-21 -10 -39 -10 -17 0 -37 -5 -44 -12 -7 -7 -30 -11 -53 -9 -27 2 -47 -3 -59
-14 -13 -11 -28 -15 -43 -11 -16 4 -29 0 -37 -9 -7 -8 -27 -15 -46 -15 -18 0
-36 -4 -39 -10 -3 -5 -19 -10 -35 -10 -16 0 -32 -4 -35 -10 -3 -5 -21 -10 -40
-10 -19 0 -37 -4 -40 -10 -3 -5 -24 -10 -45 -10 -21 0 -42 -4 -45 -10 -3 -5
-17 -10 -29 -10 -13 0 -29 -6 -36 -14 -6 -8 -18 -12 -26 -9 -8 3 -23 -2 -34
-12 -11 -10 -26 -15 -34 -12 -8 3 -20 -1 -26 -9 -7 -8 -25 -14 -41 -14 -15 0
-31 -4 -34 -10 -3 -5 -17 -10 -30 -10 -13 0 -27 -4 -30 -10 -3 -5 -17 -10 -30
-10 -13 0 -27 -4 -30 -10 -3 -5 -19 -10 -35 -10 -16 0 -32 -4 -35 -10 -3 -5
-17 -10 -29 -10 -13 0 -29 -6 -36 -14 -6 -8 -18 -12 -26 -9 -8 3 -24 -3 -34
-12 -11 -10 -20 -14 -20 -10 0 4 -9 0 -20 -10 -10 -9 -26 -15 -34 -12 -9 4
-22 0 -30 -8 -8 -8 -21 -15 -30 -15 -8 0 -18 -4 -21 -10 -3 -5 -15 -10 -25
-10 -11 0 -35 -9 -55 -20 -20 -11 -42 -20 -50 -20 -9 0 -23 -4 -33 -9 -9 -5
-34 -17 -54 -25 -20 -9 -40 -21 -43 -26 -4 -6 -10 -8 -15 -5 -4 3 -13 -2 -20
-10 -7 -8 -20 -15 -30 -15 -9 0 -44 -13 -76 -29 -32 -16 -81 -39 -109 -52 -27
-13 -58 -30 -67 -38 -10 -8 -18 -11 -18 -6 0 4 -7 2 -15 -5 -23 -19 -147 -80
-162 -80 -7 0 -13 -4 -13 -10 0 -5 -6 -10 -13 -10 -19 0 -73 -28 -87 -45 -7
-8 -49 -33 -95 -55 -46 -22 -88 -47 -95 -55 -7 -8 -20 -15 -30 -15 -10 0 -23
-7 -30 -15 -7 -8 -16 -13 -20 -10 -4 2 -16 -5 -26 -16 -10 -11 -37 -29 -60
-39 -22 -11 -47 -26 -54 -35 -7 -8 -18 -15 -24 -15 -7 0 -23 -11 -36 -25 -12
-13 -26 -22 -30 -20 -4 2 -18 -7 -30 -20 -13 -14 -29 -25 -35 -25 -7 0 -20 -9
-30 -20 -10 -11 -25 -20 -34 -20 -9 0 -24 -9 -34 -20 -9 -11 -23 -20 -30 -20
-8 0 -24 -11 -37 -25 -12 -13 -26 -22 -30 -20 -4 2 -18 -7 -30 -20 -13 -14
-29 -25 -35 -25 -6 0 -24 -13 -40 -30 -16 -16 -34 -30 -40 -30 -6 0 -26 -16
-45 -35 -19 -19 -39 -35 -45 -35 -6 0 -24 -13 -40 -30 -16 -16 -34 -30 -40
-30 -6 0 -31 -20 -55 -45 -24 -25 -51 -45 -58 -45 -8 0 -32 -18 -53 -40 -22
-22 -45 -40 -52 -40 -7 0 -37 -25 -67 -55 -30 -30 -59 -55 -65 -55 -6 0 -48
-38 -95 -85 -47 -47 -89 -85 -95 -85 -13 0 -515 -502 -515 -515 0 -6 -43 -53
-95 -105 -52 -52 -95 -99 -95 -105 0 -6 -25 -35 -55 -65 -30 -30 -55 -59 -55
-65 0 -6 -18 -29 -40 -50 -22 -21 -40 -47 -40 -56 0 -10 -20 -35 -45 -56 -25
-21 -45 -45 -45 -54 0 -8 -13 -28 -30 -44 -16 -16 -30 -34 -30 -40 0 -6 -16
-26 -35 -45 -19 -19 -35 -39 -35 -45 0 -6 -13 -24 -30 -40 -16 -16 -30 -34
-30 -40 0 -6 -11 -22 -25 -35 -13 -12 -22 -26 -20 -30 2 -4 -7 -18 -20 -30
-14 -13 -25 -29 -25 -35 0 -6 -13 -24 -30 -40 -16 -16 -30 -37 -30 -47 0 -10
-4 -18 -10 -18 -5 0 -10 -8 -10 -18 0 -10 -11 -29 -25 -42 -13 -12 -22 -26
-20 -30 2 -4 -7 -18 -20 -30 -14 -13 -25 -29 -25 -35 0 -7 -9 -20 -20 -30 -11
-10 -20 -23 -20 -30 0 -6 -11 -22 -25 -35 -13 -12 -22 -26 -20 -30 3 -4 -2
-13 -10 -20 -8 -7 -15 -18 -15 -25 0 -7 -7 -18 -15 -25 -9 -7 -23 -29 -31 -49
-9 -20 -23 -50 -30 -67 -7 -17 -20 -37 -29 -44 -8 -7 -15 -18 -15 -25 0 -7 -7
-18 -15 -25 -8 -7 -13 -16 -10 -20 3 -4 -2 -13 -10 -20 -8 -7 -15 -18 -15 -25
0 -7 -7 -18 -15 -25 -13 -10 -38 -60 -78 -150 -6 -14 -18 -33 -26 -42 -8 -10
-11 -18 -6 -18 4 0 2 -7 -5 -15 -19 -23 -100 -187 -100 -202 0 -7 -4 -13 -10
-13 -5 0 -10 -8 -10 -19 0 -10 -7 -24 -15 -31 -8 -7 -13 -16 -10 -20 3 -5 1
-11 -4 -15 -13 -7 -41 -64 -41 -81 0 -7 -9 -29 -20 -49 -11 -20 -20 -42 -20
-50 0 -8 -4 -15 -10 -15 -5 0 -10 -11 -10 -25 0 -26 -13 -56 -39 -87 -8 -10
-10 -18 -6 -18 4 0 0 -9 -10 -20 -9 -10 -15 -26 -12 -34 4 -9 2 -18 -3 -21
-13 -8 -40 -66 -40 -86 0 -10 -9 -34 -20 -54 -11 -20 -20 -44 -20 -55 0 -10
-5 -22 -10 -25 -5 -3 -10 -17 -10 -29 0 -13 -7 -29 -15 -36 -9 -8 -13 -21 -9
-32 3 -11 0 -27 -8 -36 -23 -30 -38 -61 -38 -81 0 -11 -5 -23 -10 -26 -5 -3
-10 -17 -10 -30 0 -13 -4 -27 -10 -30 -5 -3 -10 -19 -10 -35 0 -16 -4 -32 -10
-35 -5 -3 -10 -17 -10 -30 0 -13 -5 -27 -10 -30 -6 -3 -10 -21 -10 -39 0 -19
-7 -39 -15 -46 -9 -8 -13 -21 -9 -32 3 -12 -1 -27 -11 -38 -10 -11 -15 -26
-12 -34 3 -8 -1 -20 -9 -26 -8 -7 -14 -27 -14 -46 0 -18 -4 -36 -10 -39 -5 -3
-10 -19 -10 -36 0 -16 -4 -29 -10 -29 -5 0 -10 -18 -10 -39 0 -22 -4 -43 -10
-46 -5 -3 -10 -21 -10 -40 0 -19 -4 -37 -10 -40 -5 -3 -10 -23 -10 -44 0 -20
-6 -43 -12 -49 -7 -7 -11 -28 -9 -48 2 -23 -3 -42 -14 -55 -12 -13 -16 -28
-12 -48 4 -19 1 -33 -8 -41 -9 -8 -15 -30 -15 -56 0 -23 -4 -46 -10 -49 -5 -3
-10 -28 -10 -55 0 -27 -4 -52 -10 -55 -5 -3 -10 -28 -10 -56 0 -27 -4 -49 -10
-49 -6 0 -10 -26 -10 -59 0 -33 -5 -63 -10 -66 -6 -3 -10 -32 -10 -64 0 -31
-5 -62 -12 -69 -7 -7 -10 -40 -9 -85 2 -58 -1 -76 -14 -87 -13 -11 -16 -29
-14 -87 2 -47 -1 -77 -9 -85 -8 -8 -12 -46 -12 -109 0 -55 -4 -101 -10 -104
-6 -4 -10 -68 -10 -161 0 -96 -4 -154 -10 -154 -7 0 -10 -172 -10 -495 0 -323
3 -495 10 -495 6 0 10 -55 10 -144 0 -86 4 -147 10 -151 6 -3 10 -53 10 -114
0 -71 4 -111 12 -119 8 -8 11 -38 9 -85 -2 -58 1 -76 14 -87 12 -10 16 -28 14
-77 -1 -38 2 -68 9 -75 7 -7 12 -41 12 -79 0 -37 4 -71 10 -74 5 -3 10 -33 10
-65 0 -32 4 -62 10 -65 5 -3 10 -26 10 -50 0 -24 4 -47 10 -50 5 -3 10 -28 10
-55 0 -27 5 -52 10 -55 6 -3 10 -26 10 -49 0 -25 6 -48 14 -55 10 -8 12 -24 9
-52 -4 -29 -1 -44 12 -59 11 -12 16 -29 13 -45 -3 -14 1 -30 8 -36 8 -6 14
-29 14 -50 0 -21 5 -41 10 -44 6 -3 10 -21 10 -40 0 -19 4 -37 10 -40 5 -3 10
-24 10 -45 0 -21 5 -42 10 -45 6 -3 10 -21 10 -40 0 -19 5 -37 10 -40 6 -3 10
-17 10 -29 0 -13 7 -29 15 -36 9 -8 12 -22 8 -41 -4 -20 0 -35 11 -48 9 -10
14 -25 11 -33 -3 -8 1 -21 10 -28 8 -7 15 -23 15 -36 0 -12 5 -26 10 -29 6 -3
10 -19 10 -36 0 -16 5 -29 10 -29 6 0 10 -13 10 -29 0 -17 5 -33 10 -36 6 -3
10 -17 10 -30 0 -13 5 -27 10 -30 6 -3 10 -16 10 -28 0 -12 7 -30 15 -40 7
-11 11 -25 8 -33 -3 -8 2 -23 11 -33 9 -10 14 -25 11 -33 -3 -8 1 -21 10 -28
8 -7 15 -21 15 -31 0 -10 9 -34 20 -54 11 -20 20 -44 20 -55 0 -11 9 -35 20
-55 11 -20 20 -42 20 -49 0 -17 29 -74 41 -82 5 -3 7 -14 4 -23 -3 -10 1 -24
10 -31 8 -7 15 -21 15 -31 0 -11 5 -19 10 -19 6 0 10 -9 10 -19 0 -11 5 -23
10 -26 6 -3 10 -14 10 -23 0 -19 67 -159 80 -167 5 -3 7 -12 4 -20 -4 -8 1
-18 10 -21 9 -3 16 -14 16 -24 0 -11 4 -22 10 -25 5 -3 10 -14 10 -24 0 -10
18 -53 40 -96 22 -43 40 -84 40 -91 0 -8 5 -14 10 -14 6 0 10 -8 10 -18 0 -11
9 -27 20 -37 11 -10 43 -64 70 -121 28 -56 57 -108 65 -114 9 -7 23 -29 31
-49 9 -20 23 -50 30 -68 8 -18 19 -35 24 -38 6 -3 19 -25 29 -48 11 -24 29
-51 40 -61 11 -10 18 -22 16 -26 -2 -4 5 -16 16 -26 11 -10 29 -37 39 -60 11
-22 26 -47 35 -54 8 -7 15 -20 15 -29 0 -10 11 -28 25 -41 13 -12 22 -26 20
-30 -2 -4 7 -18 20 -30 14 -13 25 -29 25 -35 0 -7 9 -20 20 -30 11 -10 20 -23
20 -30 0 -6 16 -26 35 -45 19 -18 32 -36 30 -40 -2 -4 7 -18 20 -30 14 -13 25
-29 25 -35 0 -6 13 -24 30 -40 16 -16 30 -34 30 -40 0 -6 16 -26 35 -45 19
-19 35 -41 35 -50 0 -10 14 -27 30 -40 17 -13 30 -30 30 -39 0 -9 20 -37 45
-61 25 -24 45 -49 45 -55 0 -6 22 -33 50 -60 27 -27 50 -54 50 -60 0 -6 34
-44 75 -85 41 -41 75 -79 75 -85 0 -13 652 -665 665 -665 6 0 44 -34 85 -75
41 -41 79 -75 85 -75 6 0 35 -25 65 -55 30 -30 60 -55 66 -55 6 0 29 -18 50
-40 22 -22 46 -40 55 -40 8 0 30 -16 49 -35 19 -19 39 -35 45 -35 6 0 24 -13
40 -30 16 -16 34 -30 40 -30 6 0 26 -16 45 -35 18 -19 36 -32 40 -30 4 2 18
-7 30 -20 13 -14 29 -25 35 -25 6 0 24 -14 40 -30 16 -17 34 -30 40 -30 6 0
22 -11 35 -25 13 -14 29 -25 35 -25 7 0 20 -9 30 -20 10 -11 26 -20 35 -20 9
0 25 -9 35 -20 10 -11 23 -20 30 -20 7 0 20 -9 30 -20 10 -11 24 -20 30 -20 7
0 18 -7 25 -15 7 -8 16 -13 20 -10 4 2 16 -5 26 -16 10 -11 37 -29 60 -39 22
-11 47 -26 54 -35 7 -8 21 -15 31 -15 11 0 19 -4 19 -10 0 -5 8 -10 18 -10 11
0 27 -9 37 -20 11 -12 47 -34 82 -51 34 -16 65 -34 68 -39 4 -6 26 -19 50 -30
24 -11 47 -25 50 -30 4 -6 10 -8 15 -5 4 3 13 -2 20 -10 7 -8 18 -15 24 -15
14 0 219 -102 239 -119 8 -6 16 -9 19 -6 3 3 11 -1 18 -10 7 -8 18 -15 25 -15
7 0 39 -13 70 -30 31 -16 63 -30 71 -30 7 0 29 -9 49 -20 20 -11 42 -20 50
-20 8 0 15 -4 15 -10 0 -5 8 -10 19 -10 10 0 24 -7 31 -15 7 -9 21 -13 31 -10
9 3 20 1 23 -4 9 -14 66 -41 87 -41 10 0 21 -4 24 -10 3 -5 15 -10 26 -10 10
0 19 -4 19 -10 0 -5 11 -10 23 -10 25 0 83 -25 92 -40 3 -5 12 -7 21 -3 8 3
23 -2 34 -12 11 -10 26 -15 34 -12 8 3 20 -1 26 -9 7 -8 25 -14 41 -14 15 0
31 -4 34 -10 3 -5 15 -10 25 -10 11 0 35 -9 55 -20 20 -11 44 -20 55 -20 10 0
22 -4 25 -10 3 -5 23 -10 44 -10 21 0 44 -6 51 -14 6 -8 18 -12 26 -9 8 3 23
-2 33 -11 10 -9 25 -14 33 -11 8 3 21 -1 28 -10 7 -8 25 -15 41 -15 15 0 31
-4 34 -10 3 -6 21 -10 40 -10 19 0 37 -5 40 -10 3 -6 17 -10 30 -10 13 0 27
-4 30 -10 3 -5 24 -10 45 -10 21 0 42 -4 45 -10 3 -5 21 -10 40 -10 19 0 37
-4 40 -10 3 -5 23 -10 44 -10 21 0 44 -6 50 -14 6 -7 22 -11 36 -8 16 3 33 -2
45 -13 15 -13 30 -16 59 -12 28 3 44 1 52 -9 7 -8 30 -14 55 -14 23 0 46 -4
49 -10 3 -5 28 -10 55 -10 27 0 52 -4 55 -10 3 -5 26 -10 50 -10 24 0 47 -5
50 -10 3 -6 33 -10 65 -10 32 0 62 -5 65 -10 3 -6 32 -10 64 -10 31 0 62 -5
69 -12 7 -7 40 -10 85 -9 58 2 76 -1 87 -14 11 -13 29 -16 87 -14 47 2 77 -1
85 -9 8 -8 46 -12 109 -12 55 0 101 -4 104 -10 4 -6 62 -10 141 -10 83 0 134
-4 134 -10 0 -7 147 -10 420 -10 273 0 420 3 420 10 0 6 22 10 49 10 28 0 53
5 56 10 3 6 21 10 39 10 19 0 39 6 46 14 6 8 18 12 26 9 8 -3 23 2 34 12 11
10 26 15 34 12 9 -4 22 0 30 8 8 8 18 15 23 15 15 0 151 71 163 85 7 8 18 15
24 15 7 0 23 11 36 25 13 14 28 25 35 25 6 0 33 23 60 50 27 28 57 50 66 50
19 0 49 31 49 51 0 8 22 37 50 64 27 27 50 54 50 60 0 7 11 22 25 35 14 13 23
26 20 28 -3 3 4 16 16 28 28 30 89 153 89 180 0 12 6 27 14 34 8 6 12 18 9 26
-3 8 2 23 12 34 10 11 15 26 12 34 -3 8 1 20 9 26 8 7 14 30 14 51 0 22 5 39
10 39 6 0 10 26 10 59 0 33 4 63 10 66 6 4 10 73 10 176 0 106 -4 169 -10 169
-5 0 -10 18 -10 39 0 22 -4 43 -10 46 -5 3 -10 21 -10 39 0 19 -7 39 -15 46
-9 7 -13 21 -10 30 3 9 -1 23 -10 30 -8 7 -15 21 -15 31 0 11 -4 19 -10 19 -5
0 -10 11 -10 23 0 13 -22 68 -50 122 -27 54 -50 104 -50 111 0 6 -7 15 -16 18
-9 3 -14 13 -10 21 3 8 1 17 -4 20 -6 4 -19 26 -30 50 -11 24 -24 47 -30 50
-6 3 -19 25 -29 48 -11 24 -29 51 -40 61 -11 10 -18 22 -16 26 3 4 -2 13 -10
20 -8 7 -15 18 -15 25 0 6 -9 20 -20 30 -11 10 -20 23 -20 30 0 18 -28 71 -45
85 -8 7 -15 18 -15 25 0 6 -9 20 -21 31 -11 10 -29 37 -39 60 -11 22 -26 47
-35 54 -8 7 -15 18 -15 25 0 6 -9 20 -20 30 -11 10 -20 23 -20 30 0 6 -11 22
-25 35 -14 13 -25 32 -25 42 0 10 -4 18 -10 18 -5 0 -10 8 -10 18 0 11 -9 27
-20 37 -11 10 -20 23 -20 30 0 7 -9 20 -20 30 -11 10 -20 23 -20 30 0 7 -9 20
-21 31 -11 10 -29 37 -39 60 -11 22 -26 47 -35 54 -8 7 -15 18 -15 25 0 6 -9
20 -20 30 -11 10 -20 23 -20 30 0 19 -28 70 -50 90 -11 10 -20 24 -20 30 0 7
-7 18 -15 25 -9 7 -24 32 -35 54 -10 23 -28 50 -39 60 -11 10 -18 22 -16 26 3
4 -2 13 -10 20 -8 7 -15 18 -15 25 0 6 -9 20 -20 30 -11 10 -20 26 -20 37 0
10 -4 18 -10 18 -5 0 -10 6 -10 13 0 20 -28 73 -45 87 -8 7 -15 18 -15 25 0 7
-7 18 -15 25 -8 7 -13 16 -10 20 3 4 -2 13 -10 20 -8 7 -15 18 -15 25 0 7 -7
18 -15 25 -17 14 -45 67 -45 87 0 7 -4 13 -10 13 -5 0 -10 7 -10 15 0 17 -17
50 -39 78 -8 9 -10 17 -6 17 5 0 -2 11 -14 24 -24 25 -111 192 -111 212 0 6
-7 17 -15 24 -9 7 -13 15 -10 18 3 3 0 11 -6 19 -24 28 -119 228 -119 249 0
12 -7 27 -15 34 -9 7 -13 15 -10 18 3 3 0 11 -7 19 -23 28 -78 148 -78 170 0
13 -4 23 -10 23 -5 0 -10 6 -10 13 0 18 -28 75 -41 83 -5 3 -7 14 -4 24 3 10
1 21 -4 24 -14 9 -41 66 -41 87 0 10 -4 21 -10 24 -5 3 -10 15 -10 26 0 10 -4
19 -10 19 -5 0 -10 11 -10 23 0 25 -25 83 -40 92 -5 3 -7 12 -3 21 3 8 -2 23
-11 33 -10 11 -14 25 -10 36 5 12 1 22 -11 31 -11 8 -16 21 -12 33 3 11 -1 25
-9 32 -8 6 -14 20 -14 30 0 10 -9 34 -20 54 -11 20 -20 47 -20 60 0 14 -4 25
-10 25 -5 0 -10 13 -10 29 0 17 -4 33 -10 36 -5 3 -10 21 -10 39 0 19 -7 39
-15 46 -9 7 -13 20 -10 28 3 8 -2 23 -11 33 -9 10 -14 27 -11 38 3 11 -1 25
-9 32 -8 6 -14 26 -14 45 0 18 -4 36 -10 39 -5 3 -10 17 -10 30 0 13 -4 27
-10 30 -5 3 -10 24 -10 45 0 21 -4 42 -10 45 -5 3 -10 21 -10 40 0 19 -4 37
-10 40 -5 3 -10 23 -10 44 0 21 -6 44 -14 50 -7 6 -11 22 -8 36 3 16 -2 33
-12 44 -10 11 -16 31 -14 51 1 20 -3 35 -10 38 -7 2 -12 23 -12 52 0 27 -4 52
-10 55 -5 3 -10 24 -10 46 0 21 -4 39 -10 39 -5 0 -10 22 -10 49 0 28 -4 53
-10 56 -5 3 -10 33 -10 65 0 32 -4 62 -10 65 -5 3 -10 30 -10 59 0 33 -5 58
-14 65 -9 8 -12 26 -8 61 3 39 1 55 -12 69 -13 15 -17 34 -15 80 2 37 -2 66
-9 73 -7 7 -12 43 -12 89 0 43 -4 81 -10 84 -6 3 -10 50 -10 105 0 55 -4 102
-10 105 -6 4 -10 65 -10 150 0 85 -4 146 -10 150 -6 4 -10 222 -10 620 0 398
4 616 10 620 6 4 10 65 10 150 0 85 4 146 10 150 6 3 10 50 10 105 0 55 4 102
10 105 6 3 10 41 10 84 0 53 4 82 13 89 9 8 12 30 9 72 -4 48 -1 65 13 80 14
15 17 32 13 80 -3 42 0 64 9 72 8 6 13 33 13 69 0 33 4 59 10 59 6 0 10 22 10
49 0 28 5 53 10 56 6 3 10 28 10 55 0 27 5 52 10 55 6 3 10 26 10 50 0 24 5
47 10 50 6 3 10 28 10 54 0 29 6 53 14 60 7 6 11 22 8 36 -3 16 2 33 13 45 12
14 16 28 12 49 -4 19 -1 33 8 41 8 7 15 27 15 46 0 18 5 36 10 39 6 3 10 21
10 40 0 19 5 37 10 40 6 3 10 24 10 45 0 21 5 42 10 45 6 3 10 17 10 30 0 13
5 27 10 30 6 3 10 23 10 44 0 21 6 44 14 51 8 6 12 18 9 26 -3 8 2 23 11 33 9
10 14 25 11 33 -3 8 1 21 10 28 9 7 15 28 15 51 0 22 5 39 10 39 6 0 10 13 10
29 0 17 5 33 10 36 6 3 10 17 10 30 0 13 5 27 10 30 6 3 10 17 10 30 0 13 5
27 10 30 6 3 10 13 10 21 0 9 7 22 15 30 8 8 12 21 8 30 -3 8 2 23 11 33 9 10
14 25 11 33 -3 8 1 21 10 28 8 7 15 21 15 31 0 10 9 34 20 54 11 20 20 46 20
60 0 13 5 27 10 30 6 3 10 14 10 24 0 20 47 118 61 127 5 3 6 16 3 30 -4 17
-1 26 10 30 9 3 16 14 16 24 0 11 5 22 10 25 6 3 10 14 10 24 0 10 18 53 40
96 22 43 40 88 40 100 0 12 7 28 15 35 9 7 13 15 10 18 -3 3 0 11 7 19 17 21
98 186 98 200 0 7 5 13 10 13 6 0 10 8 10 19 0 10 7 24 15 31 9 7 13 15 10 18
-3 3 2 14 12 24 9 10 13 18 8 18 -4 0 -2 7 5 15 19 23 80 147 80 162 0 7 5 13
10 13 6 0 10 6 10 13 0 18 28 75 41 82 5 4 7 10 4 14 -2 5 4 16 15 26 11 10
38 55 60 100 22 45 49 90 60 100 11 10 20 26 20 37 0 10 5 18 10 18 6 0 10 8
10 19 0 10 7 24 15 31 8 7 27 37 41 69 15 31 39 68 53 84 13 15 21 27 16 27
-5 0 2 12 16 28 30 34 49 67 49 87 0 8 9 19 20 25 11 6 20 17 20 24 0 20 28
71 50 91 11 10 20 24 20 30 0 7 7 18 15 25 9 7 25 32 35 55 10 23 26 48 35 55
8 7 15 18 15 24 0 7 11 23 25 36 14 13 25 29 25 35 0 7 9 20 20 30 11 10 20
26 20 35 0 10 7 23 15 30 9 7 24 32 35 54 10 23 28 50 39 60 12 11 21 24 21
31 0 7 9 20 20 30 11 10 20 23 20 30 0 7 9 20 20 30 11 10 20 23 20 30 0 6 11
22 25 35 13 12 22 26 20 30 -2 4 7 18 20 30 14 13 25 32 25 42 0 10 5 18 10
18 6 0 10 8 10 18 0 11 9 27 20 37 11 10 20 23 20 30 0 6 11 22 25 35 13 12
22 26 20 30 -3 4 2 13 10 20 8 7 15 18 15 25 0 7 7 18 15 25 16 14 65 108 65
127 0 7 9 17 20 23 11 6 20 19 20 29 0 10 7 24 15 31 9 7 13 15 10 18 -3 3 0
11 7 19 14 17 98 184 98 196 0 5 7 15 15 23 8 8 12 21 8 30 -3 8 2 23 12 34
10 11 15 26 12 34 -3 8 1 20 9 26 8 7 14 23 14 36 0 12 5 26 10 29 6 3 10 28
10 56 0 27 5 49 10 49 6 0 10 63 10 169 0 103 -4 172 -10 176 -5 3 -10 33 -10
65 0 32 -4 62 -10 65 -5 3 -10 21 -10 39 0 19 -6 39 -14 45 -7 6 -11 22 -8 36
3 16 -2 33 -13 45 -9 10 -14 23 -11 28 3 5 -1 15 -9 22 -8 7 -15 20 -15 29 0
22 -47 116 -65 131 -8 7 -15 18 -15 24 0 7 -11 23 -25 36 -14 13 -25 28 -25
34 0 14 -222 236 -236 236 -6 0 -23 14 -39 30 -16 17 -34 30 -41 30 -6 0 -17
7 -24 15 -7 8 -16 13 -20 10 -5 -3 -11 -1 -14 4 -8 12 -106 61 -123 61 -7 0
-13 5 -13 10 0 6 -9 10 -19 10 -11 0 -23 5 -26 10 -3 6 -17 10 -30 10 -13 0
-27 5 -30 10 -3 6 -17 10 -29 10 -13 0 -29 7 -36 15 -7 9 -20 13 -28 10 -8 -3
-23 2 -33 11 -13 11 -28 15 -48 11 -19 -4 -33 -1 -41 8 -7 8 -27 15 -46 15
-18 0 -36 5 -39 10 -3 6 -37 10 -75 10 -38 0 -72 5 -75 10 -4 6 -152 10 -411
10 -263 0 -404 -3 -404 -10z"/>
</g>
</svg>
